<svg height="168" viewBox="0 0 125.5 168" width="125.5" xmlns="http://www.w3.org/2000/svg" xmlns:xlink="http://www.w3.org/1999/xlink"><clipPath id="a"><path d="m0 0h115.92v68.027h-115.92z" transform="translate(0 .235)"/></clipPath><g transform="translate(8.5 48.502)"><path d="m0 0h115.92v68.027h-115.92z" fill="none" transform="translate(0 .235)"/><g clip-path="url(#a)"><path d="m44.873 63.335c-24.673 0-44.873-23.78-44.873-52.975v-10.36h89.511v10.36c0 29.2-19.97 52.976-44.638 52.976" fill="#b98068" transform="translate(2.349 2.59)"/><path d="m47.222 68.045a41.111 41.111 0 0 1 -18.38-4.345 47.378 47.378 0 0 1 -15.01-11.846 56.418 56.418 0 0 1 -10.121-17.582 63.31 63.31 0 0 1 -3.711-21.558v-10.36a2.226 2.226 0 0 1 2.349-2.354h99.614a15.022 15.022 0 0 1 6.02 1.589 13.41 13.41 0 0 1 4.787 4.062 18.191 18.191 0 0 1 2.936 7.387 17.387 17.387 0 0 1 -.587 7.917 24.658 24.658 0 0 1 -4.864 9.135 30.956 30.956 0 0 1 -7.441 6.376 38.506 38.506 0 0 1 -8.278 3.859 32.744 32.744 0 0 1 -7.375 1.585 51.894 51.894 0 0 1 -16.71 18.9 43.276 43.276 0 0 1 -11.009 5.342 40.351 40.351 0 0 1 -12.22 1.893zm-42.522-63.336v8.005c0 27.913 18.97 50.621 42.288 50.621 23.448 0 42.524-22.709 42.524-50.621v-8.005zm89.51.236v8a64.549 64.549 0 0 1 -4.7 24.017c6.435-1.411 18.131-6.618 21.144-17.188a12.217 12.217 0 0 0 -1.409-11.065 8.992 8.992 0 0 0 -7.283-3.767h-7.753z" fill="#2d140d" transform="translate(0 .235)"/></g></g><g fill="#2d140d"><path d="m2.349 29.9a2.222 2.222 0 0 0 2.351-2.353v-25.193a2.222 2.222 0 0 0 -2.351-2.354 2.222 2.222 0 0 0 -2.349 2.354v25.193a2.357 2.357 0 0 0 2.349 2.353" transform="translate(45.385 13.656)"/><path d="m2.349 43.558a2.222 2.222 0 0 0 2.351-2.358v-38.846a2.222 2.222 0 0 0 -2.351-2.354 2.222 2.222 0 0 0 -2.349 2.354v38.846a2.529 2.529 0 0 0 2.349 2.354" transform="translate(61.126 0)"/><rect height="5" rx="2.5" width="121" x="4.5" y="126.941"/></g><text fill="#b98068" font-family="SegoeUI, Segoe UI" font-size="20" transform="translate(0 163)"><tspan fill="#000" x="0" y="0">COFFEE</tspan><tspan fill="#b98068" font-family="SegoeUI-Bold, Segoe UI" font-weight="700" y="0">HUB</tspan></text></svg>